<svg xmlns="http://www.w3.org/2000/svg" width="22.625" height="30.833" viewBox="0 0 21.210937 28.906248"><g style="line-height:125%" font-weight="400" font-size="40" font-family="sans-serif" letter-spacing="0" word-spacing="0"><path d="M3.848 24.082v-.957h13.496v.957H3.848zm0-3.848v-.957h13.496v.957H3.848zm9.648-18.886v6.347h6.348l-6.348-6.347zm7.715 6.347v21.211H0V0h13.496l7.715 7.695zm-8.691.977V.957H.957v26.992h19.277V8.672H12.52zm-8.672 7.715v-.977h13.496v.977H3.848zm0-3.867v-.957h13.496v.957H3.848zm0-3.848v-.977h5.78v.977h-5.78zm0-3.867v-.957h5.78v.957h-5.78z"/></g></svg>