<?xml version="1.0" encoding="UTF-8" standalone="no"?>
<!-- Created with Inkscape (http://www.inkscape.org/) -->

<svg
   xmlns:dc="http://purl.org/dc/elements/1.1/"
   xmlns:cc="http://creativecommons.org/ns#"
   xmlns:rdf="http://www.w3.org/1999/02/22-rdf-syntax-ns#"
   xmlns:svg="http://www.w3.org/2000/svg"
   xmlns="http://www.w3.org/2000/svg"
   xmlns:sodipodi="http://sodipodi.sourceforge.net/DTD/sodipodi-0.dtd"
   xmlns:inkscape="http://www.inkscape.org/namespaces/inkscape"
   width="5.9861979mm"
   height="8.1579857mm"
   viewBox="0 0 21.210937 28.906248"
   id="svg2"
   version="1.1"
   inkscape:version="0.91 r13725"
   sodipodi:docname="fileicon.svg">
  <defs
     id="defs4" />
  <sodipodi:namedview
     id="base"
     pagecolor="#ffffff"
     bordercolor="#666666"
     borderopacity="1.0"
     inkscape:pageopacity="0.0"
     inkscape:pageshadow="2"
     inkscape:zoom="15.032389"
     inkscape:cx="9.6928625"
     inkscape:cy="4.8135389"
     inkscape:document-units="px"
     inkscape:current-layer="text4143"
     showgrid="false"
     fit-margin-top="0"
     fit-margin-left="0"
     fit-margin-right="0"
     fit-margin-bottom="0"
     inkscape:window-width="2000"
     inkscape:window-height="1310"
     inkscape:window-x="-8"
     inkscape:window-y="-8"
     inkscape:window-maximized="1" />
  <metadata
     id="metadata7">
    <rdf:RDF>
      <cc:Work
         rdf:about="">
        <dc:format>image/svg+xml</dc:format>
        <dc:type
           rdf:resource="http://purl.org/dc/dcmitype/StillImage" />
        <dc:title></dc:title>
      </cc:Work>
    </rdf:RDF>
  </metadata>
  <g
     inkscape:label="Layer 1"
     inkscape:groupmode="layer"
     id="layer1"
     transform="translate(394.22662,-197.24924)">
    <g
       style="font-style:normal;font-weight:normal;font-size:40px;line-height:125%;font-family:sans-serif;letter-spacing:0px;word-spacing:0px;fill:#000000;fill-opacity:1;stroke:none;stroke-width:1px;stroke-linecap:butt;stroke-linejoin:miter;stroke-opacity:1"
       id="text4136">
      <g
         style="font-style:normal;font-weight:normal;font-size:40px;line-height:125%;font-family:sans-serif;letter-spacing:0px;word-spacing:0px;fill:#000000;fill-opacity:1;stroke:none;stroke-width:1px;stroke-linecap:butt;stroke-linejoin:miter;stroke-opacity:1"
         id="text4143">
        <path
           d="m -390.37897,221.33127 0,-0.95703 13.4961,0 0,0.95703 -13.4961,0 z m 0,-3.84766 0,-0.95703 13.4961,0 0,0.95703 -13.4961,0 z m 9.64844,-18.88672 0,6.34766 6.34766,0 -6.34766,-6.34766 z m 7.71484,6.34766 0,21.21094 -21.21093,0 0,-28.90625 13.49609,0 7.71484,7.69531 z m -8.6914,0.97656 0,-7.71484 -11.5625,0 0,26.99219 19.27734,0 0,-19.27735 -7.71484,0 z m -8.67188,7.71485 0,-0.97657 13.4961,0 0,0.97657 -13.4961,0 z m 0,-3.86719 0,-0.95703 13.4961,0 0,0.95703 -13.4961,0 z m 0,-3.84766 0,-0.97656 5.78125,0 0,0.97656 -5.78125,0 z m 0,-3.86719 0,-0.95703 5.78125,0 0,0.95703 -5.78125,0 z"
           style=""
           id="path4148" />
      </g>
    </g>
  </g>
</svg>
