<svg xmlns="http://www.w3.org/2000/svg" width="41.125" height="30.833" viewBox="0 0 38.554688 28.906248"><g style="line-height:125%" font-weight="400" font-size="40" font-family="sans-serif" letter-spacing="0" word-spacing="0"><path d="M.957 27.95h3.867v-5.782H33.73v5.781h3.868V.957H33.73l-1.933 3.848H22.52L20.605.957H.957v26.992zm4.824 0h26.992v-4.825H5.781v4.824zm12.54-15.41q0 2.772-1.993 4.765-1.973 1.972-4.766 1.972-2.792 0-4.765-1.972-1.973-1.973-1.973-4.785 0-2.793 1.973-4.766Q8.77 5.78 11.562 5.78q2.793 0 4.766 1.973 1.992 1.973 1.992 4.785zm-4.356-.02q0-.997-.703-1.7t-1.7-.703q-.996 0-1.699.703-.703.703-.703 1.7 0 .996.703 1.718.703.703 1.7.703.996 0 1.699-.703.703-.722.703-1.718zM0 28.906V0h21.21l1.915 3.848h7.715L32.773 0h5.782v28.906H0zM31.797 12.52q0 1.992-1.406 3.418-1.407 1.406-3.399 1.406-2.012 0-3.418-1.406-1.406-1.407-1.406-3.418 0-1.993 1.406-3.399t3.418-1.406q1.992 0 3.399 1.406 1.406 1.406 1.406 3.399zm-2.402.02q0-.997-.723-1.7-.703-.723-1.68-.723-.996 0-1.719.723-.703.703-.703 1.7 0 .995.703 1.698.704.703 1.7.703t1.699-.703q.723-.722.723-1.699z"/></g></svg>