<?xml version="1.0" encoding="UTF-8" standalone="no"?>
<!-- Created with Inkscape (http://www.inkscape.org/) -->

<svg
   xmlns:dc="http://purl.org/dc/elements/1.1/"
   xmlns:cc="http://creativecommons.org/ns#"
   xmlns:rdf="http://www.w3.org/1999/02/22-rdf-syntax-ns#"
   xmlns:svg="http://www.w3.org/2000/svg"
   xmlns="http://www.w3.org/2000/svg"
   xmlns:sodipodi="http://sodipodi.sourceforge.net/DTD/sodipodi-0.dtd"
   xmlns:inkscape="http://www.inkscape.org/namespaces/inkscape"
   width="10.88099mm"
   height="8.1579857mm"
   viewBox="0 0 38.554688 28.906248"
   id="svg2"
   version="1.1"
   inkscape:version="0.91 r13725"
   sodipodi:docname="mediaicon.svg">
  <defs
     id="defs4" />
  <sodipodi:namedview
     id="base"
     pagecolor="#ffffff"
     bordercolor="#666666"
     borderopacity="1.0"
     inkscape:pageopacity="0.0"
     inkscape:pageshadow="2"
     inkscape:zoom="15.032389"
     inkscape:cx="6.2856804"
     inkscape:cy="4.9465821"
     inkscape:document-units="px"
     inkscape:current-layer="text4154"
     showgrid="false"
     fit-margin-top="0"
     fit-margin-left="0"
     fit-margin-right="0"
     fit-margin-bottom="0"
     inkscape:window-width="2000"
     inkscape:window-height="1310"
     inkscape:window-x="-8"
     inkscape:window-y="-8"
     inkscape:window-maximized="1" />
  <metadata
     id="metadata7">
    <rdf:RDF>
      <cc:Work
         rdf:about="">
        <dc:format>image/svg+xml</dc:format>
        <dc:type
           rdf:resource="http://purl.org/dc/dcmitype/StillImage" />
        <dc:title></dc:title>
      </cc:Work>
    </rdf:RDF>
  </metadata>
  <g
     inkscape:label="Layer 1"
     inkscape:groupmode="layer"
     id="layer1"
     transform="translate(384.66107,-180.35239)">
    <g
       style="font-style:normal;font-weight:normal;font-size:40px;line-height:125%;font-family:sans-serif;letter-spacing:0px;word-spacing:0px;fill:#000000;fill-opacity:1;stroke:none;stroke-width:1px;stroke-linecap:butt;stroke-linejoin:miter;stroke-opacity:1"
       id="text4136">
      <g
         style="font-style:normal;font-weight:normal;font-size:40px;line-height:125%;font-family:sans-serif;letter-spacing:0px;word-spacing:0px;fill:#000000;fill-opacity:1;stroke:none;stroke-width:1px;stroke-linecap:butt;stroke-linejoin:miter;stroke-opacity:1"
         id="text4143">
        <g
           style="font-style:normal;font-weight:normal;font-size:40px;line-height:125%;font-family:sans-serif;letter-spacing:0px;word-spacing:0px;fill:#000000;fill-opacity:1;stroke:none;stroke-width:1px;stroke-linecap:butt;stroke-linejoin:miter;stroke-opacity:1"
           id="text4154">
          <path
             d="m -383.70404,208.30161 3.86719,0 0,-5.78125 28.90625,0 0,5.78125 3.86718,0 0,-26.99219 -3.86718,0 -1.9336,3.84765 -9.27734,0 -1.91406,-3.84765 -19.64844,0 0,26.99219 z m 4.82422,0 26.99219,0 0,-4.82422 -26.99219,0 0,4.82422 z m 12.53906,-15.41016 q 0,2.77344 -1.99219,4.76562 -1.97265,1.97266 -4.76562,1.97266 -2.79297,0 -4.76563,-1.97266 -1.97265,-1.97265 -1.97265,-4.78515 0,-2.79297 1.97265,-4.76563 1.97266,-1.97265 4.76563,-1.97265 2.79297,0 4.76562,1.97265 1.99219,1.97266 1.99219,4.78516 z m -4.35547,-0.0195 q 0,-0.9961 -0.70312,-1.69922 -0.70313,-0.70313 -1.69922,-0.70313 -0.9961,0 -1.69922,0.70313 -0.70313,0.70312 -0.70313,1.69922 0,0.99609 0.70313,1.71875 0.70312,0.70312 1.69922,0.70312 0.99609,0 1.69922,-0.70312 0.70312,-0.72266 0.70312,-1.71875 z m -13.96484,16.38672 0,-28.90625 21.21094,0 1.91406,3.84765 7.71484,0 1.9336,-3.84765 5.78125,0 0,28.90625 -38.55469,0 z m 31.79687,-16.38672 q 0,1.99219 -1.40625,3.41797 -1.40625,1.40625 -3.39843,1.40625 -2.01172,0 -3.41797,-1.40625 -1.40625,-1.40625 -1.40625,-3.41797 0,-1.99219 1.40625,-3.39844 1.40625,-1.40625 3.41797,-1.40625 1.99218,0 3.39843,1.40625 1.40625,1.40625 1.40625,3.39844 z m -2.40234,0.0195 q 0,-0.99609 -0.72266,-1.69922 -0.70312,-0.72266 -1.67968,-0.72266 -0.9961,0 -1.71875,0.72266 -0.70313,0.70313 -0.70313,1.69922 0,0.99609 0.70313,1.69922 0.70312,0.70312 1.69921,0.70312 0.9961,0 1.69922,-0.70312 0.72266,-0.72266 0.72266,-1.69922 z"
             style=""
             id="path4159" />
        </g>
      </g>
    </g>
  </g>
</svg>
