<?xml version="1.0" encoding="UTF-8" standalone="no"?>
<!-- Created with Inkscape (http://www.inkscape.org/) -->

<svg
   xmlns:dc="http://purl.org/dc/elements/1.1/"
   xmlns:cc="http://creativecommons.org/ns#"
   xmlns:rdf="http://www.w3.org/1999/02/22-rdf-syntax-ns#"
   xmlns:svg="http://www.w3.org/2000/svg"
   xmlns="http://www.w3.org/2000/svg"
   xmlns:sodipodi="http://sodipodi.sourceforge.net/DTD/sodipodi-0.dtd"
   xmlns:inkscape="http://www.inkscape.org/namespaces/inkscape"
   width="13.273413mm"
   height="8.1579857mm"
   viewBox="0 0 47.031777 28.906248"
   id="svg2"
   version="1.1"
   inkscape:version="0.91 r13725"
   sodipodi:docname="foldericon.svg">
  <defs
     id="defs4" />
  <sodipodi:namedview
     id="base"
     pagecolor="#ffffff"
     bordercolor="#666666"
     borderopacity="1.0"
     inkscape:pageopacity="0.0"
     inkscape:pageshadow="2"
     inkscape:zoom="15.032389"
     inkscape:cx="23.515889"
     inkscape:cy="14.453125"
     inkscape:document-units="px"
     inkscape:current-layer="text4136"
     showgrid="false"
     fit-margin-top="0"
     fit-margin-left="0"
     fit-margin-right="0"
     fit-margin-bottom="0"
     inkscape:window-width="2000"
     inkscape:window-height="1310"
     inkscape:window-x="-8"
     inkscape:window-y="-8"
     inkscape:window-maximized="1" />
  <metadata
     id="metadata7">
    <rdf:RDF>
      <cc:Work
         rdf:about="">
        <dc:format>image/svg+xml</dc:format>
        <dc:type
           rdf:resource="http://purl.org/dc/dcmitype/StillImage" />
        <dc:title></dc:title>
      </cc:Work>
    </rdf:RDF>
  </metadata>
  <g
     inkscape:label="Layer 1"
     inkscape:groupmode="layer"
     id="layer1"
     transform="translate(408.04965,-220.59882)">
    <g
       style="font-style:normal;font-weight:normal;font-size:40px;line-height:125%;font-family:sans-serif;letter-spacing:0px;word-spacing:0px;fill:#000000;fill-opacity:1;stroke:none;stroke-width:1px;stroke-linecap:butt;stroke-linejoin:miter;stroke-opacity:1"
       id="text4136">
      <path
         d="m -408.04965,249.50507 0,-22.63672 q 0,-2.42188 2.40234,-2.42188 l 1.11328,0 q 0.83985,0 1.19141,-0.2539 0.35156,-0.27344 0.54687,-1.03516 l 0.19532,-0.78125 q 0.3125,-1.23047 0.80078,-1.50391 0.46875,-0.27343 2.26562,-0.27343 l 7.46094,0 q 1.62109,0 2.07031,0.2539 0.44922,0.25391 0.78125,1.36719 l 0.21485,0.72266 q 0.33203,1.11328 0.60547,1.30859 0.29296,0.19531 1.58203,0.19531 l 13.49609,0 q 1.38672,0 1.875,0.52735 0.50781,0.50781 0.50781,1.93359 l 0,1.875 7.75391,0 q 2.10937,0 2.16797,0.74219 0.0195,0.15625 -0.6836,1.58203 l -9.23828,18.39844 -37.10937,0 z m 0.95703,-1.99219 8.39844,-16.36719 q 0.91797,-1.77734 1.42578,-2.07031 0.50781,-0.29297 2.63672,-0.29297 l 22.73437,0 0,-1.875 q 0,-1.50391 -1.46484,-1.50391 l -13.57422,0 q -1.83594,0 -2.26563,-0.21484 -0.42968,-0.21484 -0.70312,-1.32813 l -0.23438,-0.89843 q -0.2539,-0.95703 -0.58593,-1.17188 -0.3125,-0.23437 -1.42578,-0.23437 l -7.22657,0 q -1.25,0 -1.67968,0.23437 -0.42969,0.25391 -0.66407,1.09375 l -0.23437,0.89844 q -0.3125,1.11328 -0.70313,1.36719 -0.37109,0.2539 -1.67968,0.2539 l -1.21094,0 q -0.9375,0 -1.25,0.29297 -0.29297,0.27344 -0.29297,1.19141 l 0,20.625 z m 0.58594,1.03515 34.9414,0 8.65235,-17.34375 q 0.42968,-0.9375 0.42968,-1.05468 -0.0586,-0.41016 -1.21093,-0.41016 l -31.52344,0 q -1.13281,0 -1.5625,0.25391 -0.42969,0.2539 -0.87891,1.15234 l -8.84765,17.40234 z"
         style=""
         id="path4141" />
    </g>
  </g>
</svg>
